<?xml version="1.0" encoding="UTF-8"?>
<svg width="373px" height="373px" viewBox="0 0 373 373" version="1.1" xmlns="http://www.w3.org/2000/svg" xmlns:xlink="http://www.w3.org/1999/xlink">
    <!-- Generator: Sketch 63.1 (92452) - https://sketch.com -->
    <title>3</title>
    <desc>Created with Sketch.</desc>
    <defs>
        <circle id="path-1" cx="168.5" cy="168.5" r="168.5"></circle>
        <filter x="-7.9%" y="-6.7%" width="115.7%" height="115.7%" filterUnits="objectBoundingBox" id="filter-2">
            <feMorphology radius="5" operator="dilate" in="SourceAlpha" result="shadowSpreadOuter1"></feMorphology>
            <feOffset dx="0" dy="4" in="shadowSpreadOuter1" result="shadowOffsetOuter1"></feOffset>
            <feGaussianBlur stdDeviation="6.5" in="shadowOffsetOuter1" result="shadowBlurOuter1"></feGaussianBlur>
            <feComposite in="shadowBlurOuter1" in2="SourceAlpha" operator="out" result="shadowBlurOuter1"></feComposite>
            <feColorMatrix values="0 0 0 0 0   0 0 0 0 0   0 0 0 0 0  0 0 0 0.213996941 0" type="matrix" in="shadowBlurOuter1"></feColorMatrix>
        </filter>
        <filter x="-4.0%" y="-3.8%" width="108.0%" height="107.6%" filterUnits="objectBoundingBox" id="filter-3">
            <feOffset dx="1" dy="1" in="SourceAlpha" result="shadowOffsetOuter1"></feOffset>
            <feGaussianBlur stdDeviation="2" in="shadowOffsetOuter1" result="shadowBlurOuter1"></feGaussianBlur>
            <feColorMatrix values="0 0 0 0 0   0 0 0 0 0   0 0 0 0 0  0 0 0 0.1 0" type="matrix" in="shadowBlurOuter1" result="shadowMatrixOuter1"></feColorMatrix>
            <feMerge>
                <feMergeNode in="shadowMatrixOuter1"></feMergeNode>
                <feMergeNode in="SourceGraphic"></feMergeNode>
            </feMerge>
        </filter>
        <filter x="-11.9%" y="-10.5%" width="123.9%" height="121.0%" filterUnits="objectBoundingBox" id="filter-4">
            <feOffset dx="1" dy="1" in="SourceAlpha" result="shadowOffsetOuter1"></feOffset>
            <feGaussianBlur stdDeviation="2" in="shadowOffsetOuter1" result="shadowBlurOuter1"></feGaussianBlur>
            <feColorMatrix values="0 0 0 0 0   0 0 0 0 0   0 0 0 0 0  0 0 0 0.1 0" type="matrix" in="shadowBlurOuter1" result="shadowMatrixOuter1"></feColorMatrix>
            <feMerge>
                <feMergeNode in="shadowMatrixOuter1"></feMergeNode>
                <feMergeNode in="SourceGraphic"></feMergeNode>
            </feMerge>
        </filter>
    </defs>
    <g id="Page-1" stroke="none" stroke-width="1" fill="none" fill-rule="evenodd">
        <g id="3" transform="translate(18.000000, 14.000000)">
            <g id="Oval">
                <use fill="black" fill-opacity="1" filter="url(#filter-2)" xlink:href="#path-1"></use>
                <use stroke="#FFFFFF" stroke-width="10" fill="#68C8D0" fill-rule="evenodd" xlink:href="#path-1"></use>
            </g>
            <g id="noun_solar-system_186394" filter="url(#filter-3)" transform="translate(38.000000, 31.000000)" fill="#1DA3A9" fill-rule="nonzero">
                <path d="M120.761905,232 C173.27619,232 216,190.7288 216,140 C216,89.2712 173.27619,48 120.761905,48 C69.168254,48 27.0539683,87.8452 25.5936508,137.347333 C20.0984127,138.6936 16,143.4776 16,149.2 C16,155.962 21.6952381,161.466667 28.6984127,161.466667 C35.7015873,161.466667 41.3968254,155.962 41.3968254,149.2 C41.3968254,143.5236 37.368254,138.7856 31.9396825,137.3872 C33.3777778,91.2492 72.6539683,54.1333333 120.761905,54.1333333 C169.774603,54.1333333 209.650794,92.6537333 209.650794,140 C209.650794,187.346267 169.774603,225.866667 120.761905,225.866667 C119.006349,225.866667 117.587302,227.237467 117.587302,228.933333 C117.587302,230.6292 119.006349,232 120.761905,232 Z M35.047619,149.2 C35.047619,152.5856 32.2,155.333333 28.6984127,155.333333 C25.1968254,155.333333 22.3492063,152.5856 22.3492063,149.2 C22.3492063,145.8144 25.1968254,143.066667 28.6984127,143.066667 C32.2,143.066667 35.047619,145.8144 35.047619,149.2 Z" id="Shape"></path>
                <path d="M227.181457,47.9606 C230.994587,44.6088353 233.413043,39.7274471 233.413043,34.2823529 C233.413043,24.1996353 225.164543,16 215.021739,16 C204.878935,16 196.630435,24.1996353 196.630435,34.2823529 C196.630435,44.3650706 204.878935,52.5647059 215.021739,52.5647059 C217.492304,52.5647059 219.843326,52.0710824 221.995109,51.1904824 C222.068674,51.3001765 222.102391,51.4251059 222.191283,51.5256588 C243.264652,75.4085059 254.869565,106.077153 254.869565,137.882353 C254.869565,210.131165 195.744587,268.905882 123.065217,268.905882 C121.370152,268.905882 120,270.267918 120,271.952941 C120,273.637965 121.370152,275 123.065217,275 C199.122457,275 261,213.485976 261,137.882353 C261,104.797388 248.987413,72.8885882 227.181457,47.9606 Z M202.76087,34.2823529 C202.76087,27.5605412 208.262935,22.0941176 215.021739,22.0941176 C221.780543,22.0941176 227.282609,27.5605412 227.282609,34.2823529 C227.282609,41.0041647 221.780543,46.4705882 215.021739,46.4705882 C208.262935,46.4705882 202.76087,41.0041647 202.76087,34.2823529 Z" id="Shape"></path>
                <path d="M113.434211,236.8875 C113.434211,231.4891 107.321026,227.190263 95.7507368,224.457925 C95.4932105,224.394662 95.2448816,224.424788 94.9904211,224.4278 C90.3917368,215.736738 81.1545132,209.775 70.5131579,209.775 C60.8681842,209.775 52.3759474,214.670312 47.4430921,222.059975 C21.1876711,201.336987 6.13157895,170.549238 6.13157895,137.475 C6.13157895,77.6738625 55.6410132,29.025 116.5,29.025 C177.358987,29.025 226.868421,77.6738625 226.868421,137.475 C226.868421,139.140912 228.238829,140.4875 229.934211,140.4875 C231.629592,140.4875 233,139.140912 233,137.475 C233,74.3540875 180.737487,23 116.5,23 C52.2625132,23 0,74.3540875 0,137.475 C0,171.6729 15.2676316,203.5331 41.9369342,225.37975 C32.6751842,228.097025 27.5921053,232.076538 27.5921053,236.8875 C27.5921053,242.798025 35.3270921,247.006487 46.0849474,249.452638 C50.7050921,258.086463 59.9147237,264 70.5131579,264 C81.1115921,264 90.3212237,258.086463 94.9413684,249.452638 C105.699224,247.006487 113.434211,242.798025 113.434211,236.8875 Z M70.5131579,215.8 C82.3471053,215.8 91.9736842,225.262263 91.9736842,236.8875 C91.9736842,239.460175 91.4800921,241.918375 90.6155395,244.198838 C85.0817895,245.232125 78.3339868,245.925 70.5131579,245.925 C62.6923289,245.925 55.9445263,245.232125 50.4107763,244.198838 C49.5462237,241.918375 49.0526316,239.460175 49.0526316,236.8875 C49.0526316,234.22445 49.5768816,231.684912 50.4996842,229.338175 C51.6370921,228.732663 52.3115658,227.491512 52.0601711,226.17505 C55.8004342,219.978338 62.6616711,215.8 70.5131579,215.8 Z M33.7236842,236.8875 C33.7236842,235.806013 36.2621579,233.299612 43.5556711,231.1517 C43.1479211,233.001375 42.9210526,234.917325 42.9210526,236.8875 C42.9210526,238.845625 43.1448553,240.752538 43.5495395,242.5992 C37.2125526,240.734463 33.7236842,238.4781 33.7236842,236.8875 Z M70.5131579,257.975 C64.1823026,257.975 58.5013947,255.2517 54.5679868,250.952862 C59.6633289,251.6126 65.0928421,251.95 70.5131579,251.95 C75.9334737,251.95 81.3629868,251.6126 86.4583289,250.952862 C82.5249211,255.2517 76.8440132,257.975 70.5131579,257.975 Z M97.4767763,242.5992 C97.8814605,240.752538 98.1052632,238.845625 98.1052632,236.8875 C98.1052632,234.917325 97.8783947,233.004388 97.4706447,231.1517 C104.564882,233.245387 107.302632,235.69455 107.302632,236.8875 C107.302632,238.4781 103.813763,240.734463 97.4767763,242.5992 Z" id="Shape"></path>
                <path d="M186,16 C190.410667,16 194,12.4106667 194,8 C194,3.58933333 190.410667,0 186,0 C181.589333,0 178,3.58933333 178,8 C178,12.4106667 181.589333,16 186,16 Z M186,5.33333333 C187.469333,5.33333333 188.666667,6.53066667 188.666667,8 C188.666667,9.46933333 187.469333,10.6666667 186,10.6666667 C184.530667,10.6666667 183.333333,9.46933333 183.333333,8 C183.333333,6.53066667 184.530667,5.33333333 186,5.33333333 Z" id="Shape"></path>
            </g>
            <g id="human_icons_comblock10(1)" filter="url(#filter-4)" transform="translate(119.000000, 118.000000)" fill-rule="nonzero">
                <polygon id="Path" fill="#68C8D0" points="83 74.0033878 83 27.9966122 43 5 3 27.9966122 3 74.0033878 43 97"></polygon>
                <path d="M43.9931368,99.9963783 C43.3581473,99.9929407 42.7345311,99.8284287 42.181251,99.5183969 L1.82561223,76.3021616 C0.699631311,75.6586375 0.00384832835,74.4667271 0,73.1747981 L0,26.8379236 C0.00458525961,25.5426234 0.699515513,24.3469753 1.82561223,23.6969035 L42.181251,0.480668157 C43.3081935,-0.160222719 44.6918065,-0.160222719 45.818749,0.480668157 L86.1743878,23.6969035 C87.3004845,24.3469753 87.9954147,25.5426234 88,26.8379236 L88,73.2703944 C87.9961517,74.5623233 87.3003687,75.7542338 86.1743878,76.3977578 L45.818749,99.6139932 C45.2523437,99.8925392 44.6243443,100.024077 43.9931368,99.9963783 Z M7.28872251,71.1126501 L43.9931368,92.1984545 L80.7112775,71.1126501 L80.7112775,28.9273848 L43.9931368,7.86889365 L7.28872251,28.9273848 L7.28872251,71.1126501 Z" id="Shape" fill="#1DA3A9"></path>
                <path d="M43.7657559,51.9971192 C43.6011165,51.9921781 43.440522,51.9451332 43.2994132,51.8605078 L7.44589463,30.2622363 C7.23749301,30.1400009 7.08686573,29.9397891 7.02760168,29.7062467 C6.96833764,29.4727042 7.00536523,29.2252527 7.13042756,29.019072 C7.39100504,28.5930783 7.94607577,28.4533464 8.37857989,28.7048657 L43.7794718,50.0299142 L83.6380507,27.1201728 C83.9198145,26.9591111 84.2664452,26.9600024 84.5473703,27.122511 C84.8282954,27.2850196 85.0008357,27.5844566 85,27.9080269 C84.9991582,28.2315972 84.8250678,28.5301429 84.543304,28.6912045 L44.2320985,51.9151523 C44.0861365,51.9813941 43.9256656,52.0095993 43.7657559,51.9971192 L43.7657559,51.9971192 Z" id="Path" stroke="#1DA3A9" stroke-width="4" fill="#1DA3A9"></path>
                <path d="M43.9924812,98 C43.4419253,97.9925599 42.9999387,97.5863584 43,97.0878743 L43,50.8008999 C43.062059,50.3435988 43.4910749,50 44,50 C44.5089251,50 44.937941,50.3435988 45,50.8008999 L45,97.0878743 C45,97.5916274 44.5489185,98 43.9924812,98 L43.9924812,98 Z" id="Path" stroke="#1DA3A9" stroke-width="4" fill="#FFFFFF"></path>
            </g>
        </g>
    </g>
</svg>